<?xml version="1.0" standalone="no"?>
<!DOCTYPE svg PUBLIC "-//W3C//DTD SVG 20010904//EN"
 "http://www.w3.org/TR/2001/REC-SVG-20010904/DTD/svg10.dtd">
<svg version="1.0" xmlns="http://www.w3.org/2000/svg"
 width="207.000000pt" height="209.000000pt" viewBox="0 0 207.000000 209.000000"
 preserveAspectRatio="xMidYMid meet">

<g transform="translate(0.000000,209.000000) scale(0.100000,-0.100000)"
fill="#000000" stroke="none">
<path d="M915 1931 c-240 -40 -437 -155 -583 -340 -91 -114 -150 -250 -177
-407 -19 -109 -19 -179 0 -288 62 -354 295 -617 642 -723 79 -24 103 -27 243
-27 140 0 164 3 243 27 323 99 549 333 629 654 31 124 31 313 -1 432 -85 322
-328 566 -647 651 -88 24 -268 34 -349 21z m350 -40 c371 -98 635 -426 652
-812 21 -450 -295 -837 -741 -910 -94 -15 -266 -7 -356 16 -384 100 -660 456
-660 854 0 433 305 793 737 871 81 15 278 4 368 -19z"/>
<path d="M975 1830 c3 -5 12 -7 20 -3 21 7 19 13 -6 13 -11 0 -18 -4 -14 -10z"/>
<path d="M938 1823 c7 -3 16 -2 19 1 4 3 -2 6 -13 5 -11 0 -14 -3 -6 -6z"/>
<path d="M885 1800 c-8 -13 8 -18 29 -10 19 6 19 7 -2 12 -12 4 -24 2 -27 -2z"/>
<path d="M1125 1792 c17 -11 37 -27 45 -38 14 -18 14 -18 -2 -5 -13 10 -18 10
-18 1 0 -7 -11 -3 -26 9 -33 26 -53 28 -31 3 10 -10 13 -23 8 -31 -6 -10 -13
-7 -28 13 -11 14 -23 22 -27 19 -3 -3 -6 0 -6 7 0 16 -123 8 -144 -9 -10 -8
-16 -8 -25 2 -6 8 -8 17 -4 20 3 4 -1 7 -9 7 -9 0 -21 -6 -27 -14 -10 -12 -8
-15 11 -19 19 -4 18 -5 -7 -6 -36 -2 -65 -22 -65 -45 0 -9 -3 -15 -7 -15 -27
4 -41 -7 -60 -48 -32 -72 -34 -90 -17 -188 9 -49 16 -113 17 -141 1 -35 5 -50
13 -47 14 5 27 -24 14 -32 -6 -4 -10 -13 -10 -21 0 -14 2 -14 15 0 12 12 14
30 10 88 -15 189 -20 164 38 203 29 19 68 48 88 65 49 42 124 54 199 31 19 -6
46 -11 60 -11 38 0 95 -18 117 -38 17 -14 21 -33 25 -103 l4 -85 -79 -11 c-49
-6 -89 -18 -105 -30 -29 -21 -29 -25 -16 -155 5 -49 3 -59 -16 -78 -20 -20
-23 -21 -40 -5 -10 9 -24 14 -30 10 -8 -5 -4 -15 14 -32 14 -13 26 -31 26 -39
0 -12 6 -15 25 -10 14 4 25 2 25 -3 0 -17 -15 -21 -84 -22 -36 -1 -66 -5 -66
-10 0 -9 9 -11 65 -14 85 -4 90 -5 75 -15 -8 -5 -25 -10 -38 -10 -20 0 -21 -3
-12 -21 10 -18 17 -20 53 -14 47 8 77 24 77 41 0 7 7 14 15 18 9 3 15 0 15 -8
0 -7 -7 -19 -15 -26 -8 -7 -15 -23 -15 -35 0 -15 -14 -34 -39 -54 -64 -51
-150 -40 -225 28 l-29 26 33 -47 c18 -27 45 -55 59 -65 35 -23 60 -53 68 -83
3 -14 13 -35 20 -47 8 -12 12 -27 9 -32 -4 -5 -2 -13 4 -16 8 -5 8 -11 0 -20
-7 -9 -6 -16 3 -24 11 -8 23 -7 51 4 l36 15 0 -30 c0 -35 2 -36 41 -13 24 14
33 15 49 5 27 -16 40 -15 40 4 0 10 7 14 21 12 29 -4 59 38 63 88 2 21 7 46
10 55 5 12 0 18 -18 23 -14 3 -26 12 -27 19 0 6 -4 3 -9 -8 -6 -14 -9 3 -10
55 -4 149 -2 176 14 229 9 30 16 65 16 78 0 16 6 23 19 23 26 0 37 17 50 78
14 68 14 112 0 112 -9 0 -10 21 -4 78 9 95 12 168 5 164 -3 -2 -17 1 -32 7
-24 9 -28 8 -28 -7 -1 -11 -6 -7 -17 13 -9 17 -20 33 -25 36 -5 3 -9 9 -9 13
2 12 -12 61 -26 89 -16 31 -38 37 -28 7 11 -36 -10 -21 -29 21 -18 40 -66 79
-96 79 -8 0 -1 -8 15 -18z m-114 -48 c25 -12 28 -18 18 -30 -13 -16 -23 -19
-14 -5 12 20 -66 30 -120 15 -18 -4 -18 -4 -2 6 9 6 15 15 12 21 -10 15 74 10
106 -7z m-51 -44 c4 0 10 -7 14 -15 6 -16 -2 -16 -59 0 -26 7 -27 9 -10 16 11
4 26 6 33 3 8 -2 17 -4 22 -4z m-53 -46 c-3 -3 -12 -4 -19 -1 -8 3 -5 6 6 6
11 1 17 -2 13 -5z m-76 -27 c-10 -9 -11 -8 -5 6 3 10 9 15 12 12 3 -3 0 -11
-7 -18z m29 0 c0 -2 -10 -12 -22 -23 l-23 -19 19 23 c18 21 26 27 26 19z m402
-412 c25 6 28 4 28 -17 0 -13 -15 -50 -34 -81 -19 -32 -37 -65 -40 -75 -4 -11
-17 -18 -36 -18 -27 -2 -30 2 -30 27 0 15 -7 54 -15 86 -8 31 -15 63 -15 69 0
17 28 22 74 12 22 -5 52 -6 68 -3z"/>
<path d="M821 1327 c-28 -14 -37 -50 -17 -66 18 -15 81 -27 73 -13 -5 6 0 8
13 5 16 -4 18 -8 9 -19 -17 -21 3 -17 60 12 28 14 51 32 51 40 0 42 -131 71
-189 41z"/>
</g>
</svg>
